# xmcd
#
# Track frame offsets: 
#        150
#        14085
#        26705
#        40303
#        53933
#        66150
#        76795
#        92058
#        106380
#        119957
#        134314
#        147203
#        162855
#        175617
#        191114
#        208428
#        229150
#        245642
#        264612
#        285981
#        303695
#        318518
#        332115
#
# Disc length: 4546 seconds
#
# Revision: 1
# Processed by: cddbd v1.5.2PL0 Copyright (c) Steve Scherf et al.
# Submitted via: ExactAudioCopy v0.95b4
#
DISCID=6111c017
DTITLE=Chet Baker - Complete 1953-1954 Studio Recordings [CD 2)
DYEAR=2004
DGENRE=Jazz
TTITLE0=But Not For Me
TTITLE1=Time After Time
TTITLE2=I Get Along With You Very Well
TTITLE3=There Will Never Be Another You
TTITLE4=Look For The Silver Lining
TTITLE5=My Funny Valentine
TTITLE6=I Fall In Love Too Easily
TTITLE7=Headline
TTITLE8=Bockhanal
TTITLE9=Ergo
TTITLE10=A Dandy Line
TTITLE11=Pro Defunctus
TTITLE12=Little Old Lady
TTITLE13=Moonlight Becomes You
TTITLE14=Goodbye
TTITLE15=Dot's Groovy
TTITLE16=Tommy Hawk
TTITLE17=The Half Dozens
TTITLE18=Little Man, You've Had A Busy Day
TTITLE19=Stella By Starlight
TTITLE20=I'm Glad There's You
TTITLE21=There Will Never Be Another You (alternate take)
TTITLE22=Little Old Lady (alternate take)
EXTD=YEAR: 2004
EXTT0=
EXTT1=
EXTT2=
EXTT3=
EXTT4=
EXTT5=
EXTT6=
EXTT7=
EXTT8=
EXTT9=
EXTT10=
EXTT11=
EXTT12=
EXTT13=
EXTT14=
EXTT15=
EXTT16=
EXTT17=
EXTT18=
EXTT19=
EXTT20=
EXTT21=
EXTT22=
PLAYORDER=
